<svg xmlns="http://www.w3.org/2000/svg" width="240" height="240" viewBox="0 0 240 240" role="img" aria-labelledby="title desc">
  <title id="title">Logo AfriTalent</title>
  <desc id="desc">Monogramme AfriTalent avec un A stylisé et une étoile de talent.</desc>
  <defs>
    <linearGradient id="mark" x1="36" x2="204" y1="32" y2="210" gradientUnits="userSpaceOnUse">
      <stop offset="0" stop-color="#2454d6"/>
      <stop offset="1" stop-color="#0f9f6e"/>
    </linearGradient>
  </defs>
  <rect x="20" y="20" width="200" height="200" rx="48" fill="url(#mark)"/>
  <path d="M68 170L112 70c3-7 13-7 16 0l44 100h-31l-8-22H106l-8 22H68zm41-48h29l-14-39h-1l-14 39z" fill="#ffffff"/>
  <path d="M158 62l6 18 19 1-15 11 5 18-16-11-16 11 5-18-15-11 19-1z" fill="#f59e0b"/>
  <path d="M58 184h124" stroke="#ffffff" stroke-width="14" stroke-linecap="round" opacity=".88"/>
</svg>
